<?xml version="1.0" encoding="UTF-8"?>
<svg width="300" height="400" viewBox="0 0 300 400" xmlns="http://www.w3.org/2000/svg">
    <style>
        .palm {
            fill: none;
            stroke: #00ff9d;
            stroke-width: 4;
            stroke-linecap: round;
            stroke-linejoin: round;
        }
    </style>
    
    <!-- Palm Tree 1 -->
    <g class="palm" transform="translate(50, 380)">
        <path d="M0,0 C0,-100 0,-200 0,-300" />
        <path d="M0,-280 C20,-260 40,-240 60,-260" />
        <path d="M0,-280 C-20,-260 -40,-240 -60,-260" />
        <path d="M0,-250 C30,-230 60,-210 80,-230" />
        <path d="M0,-250 C-30,-230 -60,-210 -80,-230" />
        <path d="M0,-220 C40,-200 80,-180 100,-200" />
        <path d="M0,-220 C-40,-200 -80,-180 -100,-200" />
    </g>
    
    <!-- Palm Tree 2 -->
    <g class="palm" transform="translate(200, 380) scale(0.8)">
        <path d="M0,0 C0,-100 0,-200 0,-300" />
        <path d="M0,-280 C20,-260 40,-240 60,-260" />
        <path d="M0,-280 C-20,-260 -40,-240 -60,-260" />
        <path d="M0,-250 C30,-230 60,-210 80,-230" />
        <path d="M0,-250 C-30,-230 -60,-210 -80,-230" />
        <path d="M0,-220 C40,-200 80,-180 100,-200" />
        <path d="M0,-220 C-40,-200 -80,-180 -100,-200" />
    </g>
</svg> 